<svg width="114" height="114" viewBox="0 0 114 114" fill="none" xmlns="http://www.w3.org/2000/svg">
<circle cx="57" cy="57" r="57" fill="white"/>
<path fill-rule="evenodd" clip-rule="evenodd" d="M24.5925 53.215C13.5656 52.8416 26.0553 39.7527 32.1244 37.076C27.7243 36.9636 19.1621 36.9911 15.9545 38.5058C11.3452 40.248 8.27 43.6579 8.30947 49.7129C8.39427 62.7292 22.7373 61.3252 34.1159 61.3252C37.1795 61.3252 40.2431 61.326 43.3067 61.3266C46.1637 61.3274 49.9691 60.8093 49.9155 64.2765C49.8657 67.4887 46.6031 67.1803 43.6239 67.1782C38.5479 67.1755 17.4092 66.818 15.4564 67.2132C14.2373 67.4599 8.1556 75.997 7 77.5114C9.0924 77.8659 25.8364 77.6416 29.362 77.6416C35.5775 77.6416 45.6509 78.226 51.3281 77.0298C57.5117 75.727 61.9484 72.25 62.0164 65.2529C62.0359 63.2537 62.1401 62.2058 61.4904 60.3611C61.0891 59.2218 59.8845 57.4873 59.3196 56.8377C54.7535 51.5864 31.7771 53.458 24.5925 53.215Z" fill="#012B5D" stroke="white" stroke-width="2.79827" stroke-linecap="round" stroke-linejoin="round"/>
<path fill-rule="evenodd" clip-rule="evenodd" d="M61.5616 56.9059C61.6108 58.5252 65.1329 61.8753 62.7528 69.4981C61.2768 74.2256 58.6495 75.5187 54.7089 77.5904L65.8079 77.6121L65.9425 67.2681C80.8956 67.2561 100.438 69.7592 105.771 58.2887C112.086 44.7061 97.8876 37.0775 86.4087 37L83.8011 37.044C84.7328 37.3971 89.7784 38.7121 92.9424 44.2799C94.9155 47.7368 95.898 54.0059 92.0949 56.0271C88.5372 57.918 66.1117 56.1814 61.5616 56.9059Z" fill="#3A3A3A" stroke="white" stroke-width="2.79827" stroke-linecap="round" stroke-linejoin="round"/>
<path fill-rule="evenodd" clip-rule="evenodd" d="M35.0018 37.083C30.5332 38.9521 27.1957 41.8298 22.9781 47.4625H53.5419L61.4649 37.083H35.0018Z" fill="#012B5D" stroke="white" stroke-width="2.79827" stroke-linecap="round" stroke-linejoin="round"/>
<path fill-rule="evenodd" clip-rule="evenodd" d="M78.8091 37.083C86.9239 38.3666 90.0665 42.0588 92.7935 47.4625H55.396L63.3588 37.083H78.8091Z" fill="#3A3A3A" stroke="white" stroke-width="2.79827" stroke-linecap="round" stroke-linejoin="round"/>
</svg>
