<svg width="287" height="72" viewBox="0 0 287 72" fill="none" xmlns="http://www.w3.org/2000/svg">
<path fill-rule="evenodd" clip-rule="evenodd" d="M0 11.3712V61.0557C0 68.1213 3.53271 71.654 10.5981 71.654H275.575C282.64 71.654 286.173 68.1213 286.173 61.0557V11.3712C286.173 4.3057 282.64 0.772949 275.575 0.772949H10.5981C3.53271 0.772949 0 4.3057 0 11.3712Z" fill="white"/>
<path fill-rule="evenodd" clip-rule="evenodd" d="M29.4439 31.6159C18.4169 31.2425 30.9067 18.1536 36.9757 15.4769C32.5756 15.3645 24.0135 15.392 20.8059 16.9066C16.1965 18.6489 13.1213 22.0588 13.1608 28.1138C13.2456 41.1301 27.5887 39.7261 38.9672 39.7261C42.0308 39.7261 45.0944 39.7269 48.158 39.7274C51.0151 39.7282 54.8204 39.2102 54.7668 42.6774C54.7171 45.8896 51.4544 45.5812 48.4752 45.579C43.3992 45.5764 22.2605 45.2189 20.3077 45.6141C19.0887 45.8608 13.0069 54.3978 11.8513 55.9122C13.9437 56.2668 30.6877 56.0425 34.2133 56.0425C40.4288 56.0425 50.5022 56.6269 56.1794 55.4306C62.3631 54.1278 66.7997 50.6509 66.8677 43.6538C66.8872 41.6546 66.9915 40.6066 66.3417 38.762C65.9404 37.6226 64.7359 35.8882 64.1709 35.2386C59.6048 29.9873 36.6284 31.8589 29.4439 31.6159Z" fill="#012B5D" stroke="white" stroke-width="2.79827" stroke-linecap="round" stroke-linejoin="round"/>
<path fill-rule="evenodd" clip-rule="evenodd" d="M66.4129 35.3068C66.4621 36.9261 69.9843 40.2762 67.6041 47.899C66.1281 52.6265 63.5008 53.9196 59.5603 55.9913L70.6592 56.013L70.7939 45.669C85.7469 45.657 105.289 48.1601 110.622 36.6895C116.937 23.107 102.739 15.4783 91.26 15.4009L88.6524 15.4449C89.5841 15.7979 94.6297 17.113 97.7937 22.6807C99.7668 26.1377 100.749 32.4067 96.9463 34.4279C93.3885 36.3189 70.9631 34.5822 66.4129 35.3068Z" fill="#3A3A3A" stroke="white" stroke-width="2.79827" stroke-linecap="round" stroke-linejoin="round"/>
<path fill-rule="evenodd" clip-rule="evenodd" d="M39.8531 15.4839C35.3845 17.353 32.0471 20.2307 27.8295 25.8634H58.3932L66.3163 15.4839H39.8531Z" fill="#012B5D" stroke="white" stroke-width="2.79827" stroke-linecap="round" stroke-linejoin="round"/>
<path fill-rule="evenodd" clip-rule="evenodd" d="M83.6604 15.4839C91.7752 16.7675 94.9179 20.4596 97.6448 25.8634H60.2473L68.2101 15.4839H83.6604Z" fill="#3A3A3A" stroke="white" stroke-width="2.79827" stroke-linecap="round" stroke-linejoin="round"/>
<path fill-rule="evenodd" clip-rule="evenodd" d="M220.999 51.8392H225.772C225.903 52.3918 226.14 52.7916 226.487 53.0328C226.834 53.2769 227.347 53.3972 228.031 53.3972C228.604 53.3972 229.054 53.2981 229.383 53.0997C229.712 52.9049 229.875 52.6325 229.875 52.2857C229.875 51.7329 229.189 51.2833 227.815 50.9365C227.538 50.869 227.326 50.8161 227.181 50.7804C226.055 50.4904 225.156 50.2281 224.49 49.9875C223.821 49.7503 223.336 49.5274 223.031 49.3185C222.443 48.897 222.004 48.3906 221.71 47.8031C221.417 47.2151 221.268 46.5461 221.268 45.792C221.268 44.2766 221.838 43.0865 222.978 42.2226C224.122 41.3587 225.69 40.9268 227.687 40.9268C229.652 40.9268 231.199 41.3412 232.325 42.1662C233.451 42.9949 234.089 44.1774 234.234 45.7209H229.578C229.503 45.2714 229.302 44.935 228.983 44.7156C228.661 44.4926 228.2 44.3828 227.606 44.3828C227.082 44.3828 226.692 44.4674 226.434 44.641C226.179 44.8148 226.051 45.0765 226.051 45.4305C226.051 45.9334 226.72 46.3582 228.063 46.6946C228.183 46.7304 228.271 46.755 228.331 46.769C228.526 46.8149 228.82 46.8894 229.213 46.985C230.99 47.4346 232.152 47.8418 232.697 48.2098C233.377 48.66 233.869 49.1694 234.181 49.7469C234.492 50.3202 234.648 50.9964 234.648 51.7792C234.648 53.4646 234.06 54.7605 232.881 55.6666C231.702 56.5733 230.013 57.0265 227.815 57.0265C225.786 57.0265 224.182 56.5733 222.996 55.6666C221.809 54.7605 221.144 53.4858 220.999 51.8392ZM205.501 56.6016V41.3234H212.813C215.103 41.3234 216.736 41.6668 217.717 42.3505C218.694 43.0337 219.183 44.1593 219.183 45.7209C219.183 46.6558 218.981 47.4276 218.58 48.0437C218.18 48.66 217.56 49.1482 216.725 49.5062C217.575 49.6865 218.194 50.0409 218.58 50.5719C218.97 51.099 219.175 51.8749 219.204 52.8978L219.285 55.0258C219.285 55.04 219.289 55.0581 219.296 55.0757C219.317 55.6844 219.462 56.003 219.731 56.0317V56.6016H214.785C214.697 56.2336 214.629 55.9149 214.583 55.642C214.537 55.3692 214.516 55.1568 214.516 55.0046V53.4788C214.516 52.6924 214.36 52.1366 214.049 51.8145C213.737 51.4922 213.199 51.3332 212.43 51.3332H210.345V56.6016H205.501ZM210.345 47.8877H212.575C213.358 47.8877 213.896 47.7814 214.193 47.5725C214.491 47.3601 214.639 46.9921 214.639 46.468C214.639 45.9298 214.491 45.5548 214.193 45.3424C213.896 45.1334 213.315 45.0271 212.452 45.0271H210.345V47.8877ZM190.697 56.6016V41.3234H202.906V44.9844H195.604V47.0202H201.776V50.5257H195.604V52.8873H203.207V56.6016H190.697ZM179.806 56.6016V45.3494H175.408V41.3234H189.019V45.3494H184.714V56.6016H179.806ZM159.298 56.6016V41.3234H163.954L168.238 48.4294C168.369 48.6277 168.511 48.9112 168.66 49.2792C168.809 49.6441 168.964 50.0866 169.131 50.6072C169.088 50.3378 169.06 50.0409 169.039 49.7146C169.018 49.3889 169.007 48.9962 169.007 48.5321V41.3234H173.684V56.6016H169.007L164.722 49.5485C164.592 49.3396 164.447 49.0456 164.291 48.667C164.135 48.288 163.979 47.8525 163.82 47.3601C163.869 47.6294 163.901 47.9129 163.923 48.2063C163.944 48.5003 163.954 48.9112 163.954 49.4458V56.6016H159.298ZM151.314 56.6016V41.3234H156.313V56.6016H151.314ZM135.015 56.6016V41.3234H142.327C144.618 41.3234 146.251 41.6668 147.231 42.3505C148.208 43.0337 148.697 44.1593 148.697 45.7209C148.697 46.6558 148.495 47.4276 148.095 48.0437C147.695 48.66 147.075 49.1482 146.24 49.5062C147.09 49.6865 147.709 50.0409 148.095 50.5719C148.485 51.099 148.69 51.8749 148.718 52.8978L148.8 55.0258C148.8 55.04 148.804 55.0581 148.811 55.0757C148.832 55.6844 148.977 56.003 149.246 56.0317V56.6016H144.299C144.211 56.2336 144.144 55.9149 144.098 55.642C144.052 55.3692 144.031 55.1568 144.031 55.0046V53.4788C144.031 52.6924 143.875 52.1366 143.563 51.8145C143.252 51.4922 142.714 51.3332 141.945 51.3332H139.86V56.6016H135.015ZM139.859 47.8877H142.09C142.873 47.8877 143.411 47.7814 143.708 47.5725C144.006 47.3601 144.154 46.9921 144.154 46.468C144.154 45.9298 144.006 45.5548 143.708 45.3424C143.411 45.1334 142.83 45.0271 141.966 45.0271H139.859V47.8877ZM119.341 56.6016V41.3234H125.629C127.017 41.3234 128.119 41.405 128.933 41.5677C129.744 41.7308 130.423 41.989 130.968 42.3505C131.673 42.8282 132.201 43.4198 132.548 44.1241C132.891 44.8289 133.065 45.6681 133.065 46.6346C133.065 48.3413 132.558 49.6511 131.549 50.5609C130.54 51.4711 129.085 51.9242 127.184 51.9242H124.248V56.6016H119.341ZM124.248 48.1888H125.824C126.847 48.1888 127.534 48.0754 127.881 47.8454C128.225 47.6189 128.398 47.2152 128.398 46.6346C128.398 46.0466 128.232 45.6394 127.899 45.4129C127.57 45.1827 126.876 45.0695 125.824 45.0695H124.248V48.1888Z" fill="#012B5D" stroke="white" stroke-width="1.33347" stroke-linecap="round" stroke-linejoin="round"/>
<path fill-rule="evenodd" clip-rule="evenodd" d="M269.167 32.7281V16.9745H274.322V32.7281H269.167ZM251.27 32.7281V16.9745H256.33V22.323H261.044V16.9745H266.104V32.7281H261.044V26.6238H256.33V32.7281H251.27ZM240.04 32.7281V21.1255H235.505V16.9745H249.539V21.1255H245.1V32.7281H240.04ZM219.858 32.7281L225.4 16.9745H230.522L236.06 32.7281H231.044L230.456 30.6434H225.44L224.83 32.7281H219.858ZM226.36 27.3393H229.536L227.967 21.8848L226.36 27.3393ZM202.724 32.7281L198.927 16.9745H203.855L205.568 27.146L207.558 16.9745H211.753L213.655 27.146L215.316 16.9745H220.117L216.374 32.7281H211.358L209.558 23.2834L207.824 32.7281H202.724ZM183.867 27.8178H188.788C188.923 28.387 189.168 28.7998 189.526 29.0481C189.884 29.2998 190.413 29.424 191.117 29.424C191.709 29.424 192.173 29.3219 192.512 29.1173C192.852 28.9166 193.019 28.6354 193.019 28.2777C193.019 27.7079 192.311 27.2446 190.895 26.8869C190.61 26.8171 190.391 26.7628 190.241 26.726C189.08 26.4266 188.153 26.1566 187.467 25.9084C186.777 25.6634 186.276 25.4338 185.963 25.2183C185.357 24.7835 184.904 24.2614 184.601 23.6554C184.298 23.0493 184.144 22.3593 184.144 21.582C184.144 20.0194 184.732 18.7926 185.908 17.9019C187.087 17.0107 188.704 16.5657 190.764 16.5657C192.79 16.5657 194.385 16.9926 195.546 17.843C196.707 18.6974 197.365 19.9169 197.514 21.5089H192.713C192.636 21.0451 192.428 20.6982 192.1 20.472C191.768 20.2418 191.293 20.1289 190.68 20.1289C190.139 20.1289 189.737 20.2162 189.471 20.3954C189.208 20.5741 189.077 20.8444 189.077 21.2096C189.077 21.7278 189.767 22.166 191.15 22.5129C191.274 22.5493 191.366 22.5747 191.428 22.5894C191.629 22.637 191.932 22.7137 192.337 22.8122C194.17 23.2759 195.367 23.6955 195.93 24.0754C196.63 24.5391 197.138 25.0647 197.459 25.6601C197.781 26.2514 197.941 26.9487 197.941 27.7555C197.941 29.4931 197.335 30.8296 196.119 31.7644C194.903 32.6988 193.162 33.1663 190.895 33.1663C188.803 33.1663 187.149 32.6988 185.926 31.7644C184.703 30.8296 184.016 29.5153 183.867 27.8178ZM166.956 32.7281L172.498 16.9745H177.62L183.159 32.7281H178.142L177.554 30.6434H172.538L171.928 32.7281H166.956ZM173.458 27.3393H176.635L175.065 21.8848L173.458 27.3393ZM151.79 32.7281V16.9745H159.329C161.691 16.9745 163.374 17.3283 164.386 18.033C165.393 18.7377 165.897 19.8987 165.897 21.5089C165.897 22.4726 165.689 23.2686 165.276 23.9037C164.864 24.5392 164.225 25.0431 163.364 25.4117C164.24 25.5977 164.879 25.9629 165.276 26.5105C165.678 27.0548 165.89 27.8541 165.919 28.9093L166.003 31.1033C166.003 31.1181 166.007 31.1362 166.014 31.1547C166.036 31.7825 166.186 32.1113 166.463 32.1402V32.7281H161.363C161.271 32.3483 161.202 32.0199 161.155 31.7387C161.107 31.4577 161.085 31.2387 161.085 31.0817V29.5079C161.085 28.6977 160.924 28.1245 160.603 27.7922C160.282 27.4601 159.727 27.2957 158.935 27.2957H156.784V32.7281H151.79ZM156.784 23.7432H159.084C159.892 23.7432 160.446 23.6338 160.753 23.4183C161.06 23.199 161.213 22.8196 161.213 22.2793C161.213 21.7244 161.06 21.3371 160.753 21.1182C160.446 20.9027 159.847 20.7934 158.957 20.7934H156.784V23.7432ZM134.141 32.7281L139.684 16.9745H144.806L150.344 32.7281H145.328L144.74 30.6434H139.724L139.114 32.7281H134.141ZM140.644 27.3393H143.82L142.25 21.8848L140.644 27.3393ZM119.341 27.8178H124.262C124.397 28.387 124.642 28.7998 125 29.0481C125.358 29.2998 125.887 29.424 126.591 29.424C127.183 29.424 127.647 29.3219 127.986 29.1173C128.326 28.9166 128.493 28.6354 128.493 28.2777C128.493 27.7079 127.785 27.2446 126.369 26.8869C126.084 26.8171 125.865 26.7628 125.715 26.726C124.554 26.4266 123.627 26.1566 122.941 25.9084C122.251 25.6634 121.75 25.4338 121.437 25.2183C120.831 24.7835 120.378 24.2614 120.075 23.6554C119.772 23.0493 119.618 22.3593 119.618 21.582C119.618 20.0194 120.206 18.7926 121.382 17.9019C122.561 17.0107 124.178 16.5657 126.238 16.5657C128.264 16.5657 129.859 16.9926 131.02 17.843C132.181 18.6974 132.839 19.9169 132.988 21.5089H128.187C128.11 21.0451 127.902 20.6982 127.574 20.472C127.242 20.2418 126.767 20.1289 126.154 20.1289C125.613 20.1289 125.211 20.2162 124.945 20.3954C124.682 20.5741 124.551 20.8444 124.551 21.2096C124.551 21.7278 125.241 22.166 126.624 22.5129C126.748 22.5493 126.84 22.5747 126.902 22.5894C127.103 22.637 127.406 22.7137 127.811 22.8122C129.644 23.2759 130.841 23.6955 131.404 24.0754C132.104 24.5391 132.612 25.0647 132.933 25.6601C133.255 26.2514 133.415 26.9487 133.415 27.7555C133.415 29.4931 132.809 30.8296 131.593 31.7644C130.377 32.6988 128.636 33.1663 126.369 33.1663C124.277 33.1663 122.623 32.6988 121.4 31.7644C120.177 30.8296 119.49 29.5153 119.341 27.8178Z" fill="#012B5D" stroke="white" stroke-width="1.33347" stroke-linecap="round" stroke-linejoin="round"/>
</svg>
